<svg width="50" height="51" viewBox="0 0 50 51" fill="none" xmlns="http://www.w3.org/2000/svg">
<path fill-rule="evenodd" clip-rule="evenodd" d="M25.0005 0.997681C38.7855 0.997681 50.0006 12.2127 50.0006 25.9976C50.0006 39.7826 38.7855 50.9976 25.0005 50.9976C11.2155 50.9976 0.000488281 39.7826 0.000488281 25.9976C0.000488281 12.2127 11.2155 0.997681 25.0005 0.997681ZM25.0005 4.74767C13.283 4.74767 3.75049 14.2802 3.75049 25.9976C3.75049 37.7151 13.283 47.2476 25.0005 47.2476C36.718 47.2476 46.2505 37.7151 46.2505 25.9976C46.2505 14.2802 36.718 4.74767 25.0005 4.74767ZM22.7195 15.9919L31.4345 24.6694C31.787 25.0219 31.9845 25.4994 31.9845 25.9969C31.9845 26.4969 31.787 26.9744 31.4345 27.3269L22.7195 36.0019C22.3545 36.3669 21.8745 36.5494 21.397 36.5494C20.917 36.5494 20.4345 36.3668 20.0695 35.9968C19.3395 35.2619 19.342 34.0769 20.0745 33.3469L27.4545 25.9969L20.0745 18.6494C19.342 17.9194 19.3395 16.7319 20.0695 15.9969C20.7995 15.2594 21.9845 15.2644 22.7195 15.9919Z" fill="white"/>
</svg>
