<svg width="72" height="72" viewBox="0 0 72 72" fill="none" xmlns="http://www.w3.org/2000/svg">
<path d="M50.3174 62.6959V56.7808C50.3174 53.6433 49.071 50.6343 46.8525 48.4157C44.6339 46.1971 41.6249 44.9507 38.4873 44.9507H14.8272C11.6896 44.9507 8.6806 46.1971 6.46202 48.4157C4.24345 50.6343 2.99707 53.6433 2.99707 56.7808V62.6959" stroke="#3D93E0" stroke-width="3.54903" stroke-linecap="round" stroke-linejoin="round"/>
<path d="M26.6572 33.1207C33.1908 33.1207 38.4873 27.8241 38.4873 21.2906C38.4873 14.757 33.1908 9.46048 26.6572 9.46048C20.1237 9.46048 14.8271 14.757 14.8271 21.2906C14.8271 27.8241 20.1237 33.1207 26.6572 33.1207Z" stroke="#3D93E0" stroke-width="3.54903" stroke-linecap="round" stroke-linejoin="round"/>
<path d="M68.0625 62.6961V56.7811C68.0606 54.1599 67.1881 51.6136 65.5822 49.542C63.9763 47.4704 61.7279 45.9907 59.1899 45.3354" stroke="#3D93E0" stroke-width="3.54903" stroke-linecap="round" stroke-linejoin="round"/>
<path d="M47.3599 9.84518C49.9046 10.4967 52.16 11.9767 53.7707 14.0517C55.3814 16.1267 56.2556 18.6788 56.2556 21.3056C56.2556 23.9324 55.3814 26.4844 53.7707 28.5595C52.16 30.6345 49.9046 32.1144 47.3599 32.766" stroke="#3D93E0" stroke-width="3.54903" stroke-linecap="round" stroke-linejoin="round"/>
</svg>
