<svg width="50" height="50" viewBox="0 0 50 50" fill="none" xmlns="http://www.w3.org/2000/svg">
<path d="M22.8408 0C28.8142 0 33.6859 4.975 33.6859 11.1V23.075H18.9973C17.9446 23.075 17.1122 23.925 17.1122 25C17.1122 26.05 17.9446 26.925 18.9973 26.925H33.6859V38.875C33.6859 45 28.8142 50 22.7918 50H10.8696C4.87173 50 0 45.025 0 38.9V11.125C0 4.975 4.89621 0 10.8941 0H22.8408ZM39.798 16.3755C40.5198 15.6005 41.6988 15.6005 42.4207 16.3505L49.4466 23.6255C49.8075 24.0005 50 24.4755 50 25.0005C50 25.5005 49.8075 26.0005 49.4466 26.3505L42.4207 33.6255C42.0597 34.0005 41.5785 34.2005 41.1214 34.2005C40.6401 34.2005 40.1589 34.0005 39.798 33.6255C39.0761 32.8755 39.0761 31.6505 39.798 30.9005L43.6478 26.9255L33.6859 26.925V23.075L43.6478 23.0755L39.798 19.1005C39.0761 18.3505 39.0761 17.1255 39.798 16.3755Z" fill="white"/>
</svg>
